<svg width="50" height="50" viewBox="0 0 50 50" fill="none" xmlns="http://www.w3.org/2000/svg">
<path d="M45.2184 10.2969C44.4993 9.30984 43.7095 8.37641 42.855 7.50389C42.7943 7.44274 42.7367 7.38199 42.6759 7.32084C39.9753 4.61751 36.6913 2.56895 33.0757 1.33255V34.1258C33.0758 35.2251 32.8593 36.3136 32.4386 37.3292C32.018 38.3448 31.4014 39.2675 30.6241 40.0447C29.8469 40.8223 28.9241 41.4388 27.9085 41.8594C26.8929 42.2799 25.8044 42.4965 24.7051 42.4965H19.7153V49.4394C21.4521 49.8098 23.2231 49.9968 24.999 49.9968C29.6105 49.9972 34.1323 48.7222 38.0642 46.3127C41.9962 43.9032 45.1849 40.4526 47.2776 36.3435C49.3704 32.2342 50.2856 27.6261 49.9223 23.0289C49.5589 18.4318 47.9309 14.0247 45.2184 10.2953V10.2969Z" fill="#A899F1"/>
<path d="M24.999 4.14759e-09C20.3877 0.000439127 15.8662 1.27622 11.9348 3.68627C8.00338 6.09632 4.81506 9.54673 2.72247 13.6559C0.629877 17.7652 -0.285475 22.3731 0.0776436 26.9701C0.44076 31.5671 2.06821 35.9742 4.77999 39.7039C5.50076 40.6905 6.29178 41.6239 7.14691 42.4965C7.20569 42.5556 7.26329 42.6148 7.32206 42.6779C10.0222 45.3809 13.3052 47.4299 16.9195 48.6678V15.8714C16.9205 13.6514 17.803 11.5228 19.373 9.95337C20.9431 8.38398 23.0722 7.50235 25.2921 7.50235H30.282V0.559382C28.5456 0.187468 26.7748 -3.21995e-05 24.999 4.14759e-09Z" fill="#3818D9"/>
</svg>
